<?xml version="1.0" encoding="utf-8"?>
<!-- Generator: Adobe Illustrator 24.0.3, SVG Export Plug-In . SVG Version: 6.00 Build 0)  -->
<svg version="1.1" xmlns="http://www.w3.org/2000/svg" xmlns:xlink="http://www.w3.org/1999/xlink" x="0px" y="0px"
	 viewBox="0 0 80 80" style="enable-background:new 0 0 80 80;" xml:space="preserve">
<style type="text/css">
	.st0{fill:#B2E5F6;}
	.st1{fill:#232F3E;}
	.st2{display:none;}
	.st3{display:inline;}
	.st4{clip-path:url(#SVGID_2_);}
	.st5{clip-path:url(#SVGID_4_);fill:#9CD5F3;}
	.st6{clip-path:url(#SVGID_6_);}
	.st7{clip-path:url(#SVGID_8_);fill:#9CD5F3;}
	.st8{clip-path:url(#SVGID_10_);}
	.st9{clip-path:url(#SVGID_12_);fill:#232F3E;}
	.st10{clip-path:url(#SVGID_14_);}
	.st11{clip-path:url(#SVGID_16_);fill:#232F3E;}
	.st12{clip-path:url(#SVGID_18_);}
	.st13{clip-path:url(#SVGID_20_);fill:#232F3E;}
	.st14{clip-path:url(#SVGID_22_);}
	.st15{clip-path:url(#SVGID_24_);fill:#232F3E;}
	.st16{clip-path:url(#SVGID_26_);}
	.st17{clip-path:url(#SVGID_28_);fill:#232F3E;}
	.st18{clip-path:url(#SVGID_30_);}
	.st19{clip-path:url(#SVGID_32_);fill:#232F3E;}
	.st20{clip-path:url(#SVGID_34_);}
	.st21{clip-path:url(#SVGID_36_);fill:#9CD5F3;}
	.st22{clip-path:url(#SVGID_38_);}
	.st23{clip-path:url(#SVGID_40_);fill:#9CD5F3;}
	.st24{clip-path:url(#SVGID_42_);}
	.st25{clip-path:url(#SVGID_44_);fill:#232F3E;}
	.st26{clip-path:url(#SVGID_46_);}
	.st27{clip-path:url(#SVGID_48_);fill:#232F3E;}
	.st28{clip-path:url(#SVGID_50_);}
	.st29{clip-path:url(#SVGID_52_);fill:#232F3E;}
	.st30{clip-path:url(#SVGID_54_);}
	.st31{clip-path:url(#SVGID_56_);fill:#232F3E;}
	.st32{clip-path:url(#SVGID_58_);}
	.st33{clip-path:url(#SVGID_60_);fill:#232F3E;}
	.st34{clip-path:url(#SVGID_62_);}
	.st35{clip-path:url(#SVGID_64_);fill:#232F3E;}
	.st36{clip-path:url(#SVGID_66_);}
	.st37{clip-path:url(#SVGID_68_);fill:#9CD5F3;}
	.st38{clip-path:url(#SVGID_70_);}
	.st39{clip-path:url(#SVGID_72_);fill:#9CD5F3;}
	.st40{clip-path:url(#SVGID_74_);}
	.st41{clip-path:url(#SVGID_76_);fill:#232F3E;}
	.st42{clip-path:url(#SVGID_78_);}
	.st43{clip-path:url(#SVGID_80_);fill:#232F3E;}
	.st44{clip-path:url(#SVGID_82_);}
	.st45{clip-path:url(#SVGID_84_);fill:#232F3E;}
	.st46{clip-path:url(#SVGID_86_);}
	.st47{clip-path:url(#SVGID_88_);fill:#232F3E;}
	.st48{clip-path:url(#SVGID_90_);}
	.st49{clip-path:url(#SVGID_92_);fill:#232F3E;}
	.st50{clip-path:url(#SVGID_94_);}
	.st51{clip-path:url(#SVGID_96_);fill:#232F3E;}
	.st52{clip-path:url(#SVGID_98_);}
	.st53{clip-path:url(#SVGID_100_);fill:#9CD5F3;}
	.st54{clip-path:url(#SVGID_102_);}
	.st55{clip-path:url(#SVGID_104_);fill:#9CD5F3;}
	.st56{clip-path:url(#SVGID_106_);}
	.st57{clip-path:url(#SVGID_108_);fill:#232F3E;}
	.st58{clip-path:url(#SVGID_110_);}
	.st59{clip-path:url(#SVGID_112_);fill:#232F3E;}
	.st60{clip-path:url(#SVGID_114_);}
	.st61{clip-path:url(#SVGID_116_);fill:#232F3E;}
	.st62{clip-path:url(#SVGID_118_);}
	.st63{clip-path:url(#SVGID_120_);fill:#232F3E;}
	.st64{clip-path:url(#SVGID_122_);}
	.st65{clip-path:url(#SVGID_124_);fill:#232F3E;}
	.st66{clip-path:url(#SVGID_126_);}
	.st67{clip-path:url(#SVGID_128_);fill:#232F3E;}
</style>
<g id="USD">
	<title>53_Advertising</title>
	<title>32_Binoculars</title>
	<title>21_B2B</title>
	<title>04_Brand_Registry</title>
	<title>41_Customer_Segments</title>
	<title>61_SOA-No_$</title>
	<title>06_Diversity</title>
	<g>
		<path class="st0" d="M66.49,27.52H41.53c0.07-0.03,0.15-0.07,0.21-0.13l10.25-10.28c0.3-0.3,0.3-0.79,0.01-1.09
			c-0.15-0.15-0.34-0.23-0.55-0.23h-3.95c-0.42,0-0.77-0.34-0.77-0.77l0,0V5.26c0-0.42-0.34-0.77-0.77-0.77l0,0h-9.5
			c-0.42,0-0.77,0.34-0.77,0.77l0,0v9.76c0,0.42-0.34,0.77-0.77,0.77l0,0h-3.96c-0.42,0-0.77,0.34-0.77,0.76
			c0,0.21,0.08,0.41,0.23,0.55l10.25,10.24c0.06,0.05,0.13,0.1,0.21,0.13H17.54c-0.48,0.01-0.87,0.42-0.85,0.91
			c0,0.06,0.01,0.13,0.02,0.19l2.02,8.35v29.2c-0.01,0.48,0.38,0.88,0.86,0.9c0.01,0,0.02,0,0.04,0h21.33
			c-3.13-9.68,2.17-20.06,11.84-23.19c4.1-1.33,8.54-1.17,12.54,0.43v-7.34l2.01-8.35c0.1-0.48-0.2-0.94-0.68-1.04
			C66.61,27.52,66.55,27.52,66.49,27.52z"/>
		<path class="st1" d="M61.16,34.52H14.57c-0.57,0-1.08-0.39-1.21-0.95l-2.3-9.53c-0.16-0.67,0.25-1.34,0.92-1.5
			c0.1-0.02,0.19-0.04,0.29-0.04h51.19c0.68,0,1.24,0.56,1.25,1.24c0,0.1-0.01,0.19-0.04,0.29l-2.3,9.53
			C62.22,34.13,61.73,34.52,61.16,34.52z M15.58,32.03h44.59l1.7-7.06H13.81L15.58,32.03z"/>
		<path class="st1" d="M14.56,34.52c-0.27,0-0.54-0.09-0.76-0.26L3.36,26.17c-0.54-0.42-0.64-1.2-0.22-1.74
			c0.42-0.54,1.2-0.64,1.74-0.22l10.43,8.1c0.54,0.42,0.65,1.2,0.23,1.74c-0.24,0.3-0.6,0.49-0.99,0.48L14.56,34.52z"/>
		<path class="st1" d="M61.16,34.52c-0.68-0.01-1.23-0.58-1.22-1.27c0.01-0.36,0.17-0.71,0.45-0.94l10.43-8.1
			c0.54-0.42,1.32-0.32,1.74,0.22c0.42,0.54,0.32,1.32-0.22,1.74l-10.43,8.08C61.7,34.43,61.43,34.52,61.16,34.52z"/>
		<path class="st1" d="M42.13,21.73c-0.68,0-1.24-0.56-1.24-1.25c0-0.33,0.13-0.65,0.36-0.88l5.72-5.72h-3.59
			c-0.68,0-1.24-0.56-1.24-1.24V2.49h-8.55v10.16c0,0.68-0.56,1.24-1.24,1.24h-3.59l5.72,5.72c0.48,0.49,0.48,1.28-0.01,1.76
			c-0.49,0.48-1.28,0.48-1.76-0.01l-7.84-7.83c-0.48-0.48-0.48-1.27,0-1.76c0.23-0.23,0.55-0.36,0.88-0.36h5.35V1.24
			c0-0.68,0.56-1.24,1.24-1.24h0.01h11.03c0.68,0,1.24,0.56,1.24,1.24V11.4h5.35c0.68,0,1.24,0.56,1.24,1.25
			c0,0.33-0.13,0.65-0.36,0.88l-7.83,7.84C42.77,21.59,42.46,21.73,42.13,21.73z"/>
		<path class="st1" d="M57.47,80c-10.86,0-19.65-8.8-19.65-19.65s8.8-19.65,19.65-19.65s19.65,8.81,19.65,19.65
			C77.11,71.2,68.32,79.99,57.47,80z M57.47,43.18c-9.48,0-17.17,7.69-17.17,17.17s7.69,17.17,17.17,17.17s17.17-7.69,17.17-17.17
			C74.62,50.87,66.95,43.19,57.47,43.18z"/>
		<path class="st1" d="M67.35,60.6c-3.01,1.39-6.27,2.17-9.58,2.29c-4.43,0.15-8.84-0.86-12.76-2.93c-0.33-0.17-0.55,0.16-0.27,0.39
			c3.57,3.01,8.15,4.58,12.82,4.4c3.69-0.11,7.26-1.34,10.24-3.51C68.24,60.88,67.82,60.38,67.35,60.6z"/>
		<path class="st1" d="M70.06,58.92c-0.31-0.36-2.95-0.6-4.51,0.58c-0.24,0.19-0.19,0.42,0.08,0.37c0.9-0.14,2.9-0.45,3.27,0
			c0.37,0.45-0.33,2.36-0.63,3.22c-0.09,0.26,0.13,0.36,0.36,0.15C70.08,61.93,70.38,59.29,70.06,58.92z"/>
		<path class="st1" d="M39.13,62.02H15.81v-27.5h44.11v7.58c0.84,0.11,1.67,0.28,2.49,0.5v-9.33c0-0.68-0.56-1.24-1.24-1.24H14.57
			c-0.68,0-1.24,0.56-1.24,1.24v29.98c0,0.68,0.56,1.24,1.24,1.24h24.96C39.34,63.68,39.21,62.85,39.13,62.02z"/>
	</g>
	<title>18_Health</title>
</g>
<g id="Pound" class="st2">
	<g class="st3">
		<g>
			<defs>
				<path id="SVGID_1_" d="M641.72-54.63l0.68,0c4.01-0.01,18.46-0.15,18.49,0.75c0.3,0.07,0.59,0.24,0.81,0.49
					c0.59,0.66,0.54,1.68-0.12,2.27c-3.66,3.3-5.83,7.42-6.52,12.42c-0.09,0.68-0.59,1.19-1.22,1.34c-0.09,0.06-0.18,0.12-0.28,0.16
					c-3.63,1.63-7.5,2.45-11.5,2.45c-4,0-7.87-0.82-11.5-2.45c-0.04-0.02-0.08-0.06-0.13-0.13c-0.71-0.09-1.29-0.64-1.39-1.37
					c-0.69-5-2.86-9.11-6.52-12.42c-0.66-0.59-0.71-1.61-0.12-2.27c0.49-0.55,1.27-0.68,1.9-0.37
					C625.18-54.8,637.91-54.64,641.72-54.63z"/>
			</defs>
			<clipPath id="SVGID_2_">
				<use xlink:href="#SVGID_1_"  style="overflow:visible;"/>
			</clipPath>
			<g class="st4">
				<defs>
					<rect id="SVGID_3_" x="-159.1" y="-499.13" width="2297.33" height="1292.25"/>
				</defs>
				<clipPath id="SVGID_4_">
					<use xlink:href="#SVGID_3_"  style="overflow:visible;"/>
				</clipPath>
				<rect x="616.01" y="-60.63" class="st5" width="52.09" height="31.86"/>
			</g>
		</g>
		<g>
			<defs>
				<ellipse id="SVGID_5_" cx="642.24" cy="-68.56" rx="26.65" ry="26.76"/>
			</defs>
			<clipPath id="SVGID_6_">
				<use xlink:href="#SVGID_5_"  style="overflow:visible;"/>
			</clipPath>
			<g class="st6">
				<defs>
					<rect id="SVGID_7_" x="-159.1" y="-499.13" width="2297.33" height="1292.25"/>
				</defs>
				<clipPath id="SVGID_8_">
					<use xlink:href="#SVGID_7_"  style="overflow:visible;"/>
				</clipPath>
				<rect x="609.61" y="-101.31" class="st7" width="65.27" height="65.49"/>
			</g>
		</g>
		<g>
			<defs>
				<path id="SVGID_9_" d="M639.36-43.26c-15.58,0-28.25-12.73-28.25-28.37c0-15.64,12.67-28.37,28.25-28.37
					s28.25,12.73,28.25,28.37C667.61-55.99,654.93-43.26,639.36-43.26z M639.36-96.79c-13.81,0-25.05,11.29-25.05,25.16
					s11.24,25.16,25.05,25.16c13.81,0,25.05-11.29,25.05-25.16S653.17-96.79,639.36-96.79z"/>
			</defs>
			<clipPath id="SVGID_10_">
				<use xlink:href="#SVGID_9_"  style="overflow:visible;"/>
			</clipPath>
			<g class="st8">
				<defs>
					<rect id="SVGID_11_" x="-159.1" y="-499.13" width="2297.33" height="1292.25"/>
				</defs>
				<clipPath id="SVGID_12_">
					<use xlink:href="#SVGID_11_"  style="overflow:visible;"/>
				</clipPath>
				<rect x="605.12" y="-105.98" class="st9" width="68.46" height="68.71"/>
			</g>
		</g>
		<g>
			<defs>
				<path id="SVGID_13_" d="M639.36-34.78c-4,0-7.87-0.82-11.5-2.45c-0.81-0.36-1.17-1.31-0.81-2.12c0.36-0.81,1.3-1.17,2.11-0.81
					c3.21,1.44,6.64,2.17,10.19,2.17c3.55,0,6.98-0.73,10.19-2.17c0.81-0.36,1.75,0,2.11,0.81c0.36,0.81,0,1.76-0.81,2.12
					C647.23-35.6,643.36-34.78,639.36-34.78"/>
			</defs>
			<clipPath id="SVGID_14_">
				<use xlink:href="#SVGID_13_"  style="overflow:visible;"/>
			</clipPath>
			<g class="st10">
				<defs>
					<rect id="SVGID_15_" x="-159.1" y="-499.13" width="2297.33" height="1292.25"/>
				</defs>
				<clipPath id="SVGID_16_">
					<use xlink:href="#SVGID_15_"  style="overflow:visible;"/>
				</clipPath>
				<rect x="620.93" y="-46.28" class="st11" width="36.86" height="17.49"/>
			</g>
		</g>
		<g>
			<defs>
				<path id="SVGID_17_" d="M639.36-27.39c-3.43,0-6.74-0.82-9.85-2.45c-0.69-0.36-1-1.31-0.69-2.12c0.31-0.81,1.12-1.18,1.81-0.81
					c2.75,1.44,5.69,2.17,8.73,2.17s5.98-0.73,8.73-2.17c0.69-0.36,1.5,0,1.81,0.81c0.31,0.81,0,1.76-0.69,2.12
					C646.1-28.21,642.78-27.39,639.36-27.39"/>
			</defs>
			<clipPath id="SVGID_18_">
				<use xlink:href="#SVGID_17_"  style="overflow:visible;"/>
			</clipPath>
			<g class="st12">
				<defs>
					<rect id="SVGID_19_" x="-159.1" y="-499.13" width="2297.33" height="1292.25"/>
				</defs>
				<clipPath id="SVGID_20_">
					<use xlink:href="#SVGID_19_"  style="overflow:visible;"/>
				</clipPath>
				<rect x="622.71" y="-38.89" class="st13" width="33.29" height="17.49"/>
			</g>
		</g>
		<g>
			<defs>
				<path id="SVGID_21_" d="M639.36-20c-2.38,0-4.75-0.3-7.06-0.9c-0.86-0.22-1.37-1.1-1.15-1.96c0.22-0.86,1.09-1.37,1.95-1.15
					c4.1,1.06,8.43,1.06,12.53,0c0.85-0.22,1.73,0.3,1.95,1.15c0.22,0.86-0.29,1.73-1.15,1.96C644.11-20.3,641.73-20,639.36-20"/>
			</defs>
			<clipPath id="SVGID_22_">
				<use xlink:href="#SVGID_21_"  style="overflow:visible;"/>
			</clipPath>
			<g class="st14">
				<defs>
					<rect id="SVGID_23_" x="-159.1" y="-499.13" width="2297.33" height="1292.25"/>
				</defs>
				<clipPath id="SVGID_24_">
					<use xlink:href="#SVGID_23_"  style="overflow:visible;"/>
				</clipPath>
				<rect x="625.11" y="-30.04" class="st15" width="28.49" height="16.03"/>
			</g>
		</g>
		<g>
			<defs>
				<path id="SVGID_25_" d="M629.39-39.11c-0.84-5.79-3.5-10.65-7.95-14.49c-0.69-0.6-1.76-0.54-2.38,0.12
					c-0.62,0.67-0.56,1.69,0.13,2.29c3.85,3.33,6.13,7.49,6.86,12.53c0.13,0.89,0.98,1.5,1.9,1.38
					C628.88-37.41,629.52-38.22,629.39-39.11z"/>
			</defs>
			<clipPath id="SVGID_26_">
				<use xlink:href="#SVGID_25_"  style="overflow:visible;"/>
			</clipPath>
			<g class="st16">
				<defs>
					<rect id="SVGID_27_" x="-159.1" y="-499.13" width="2297.33" height="1292.25"/>
				</defs>
				<clipPath id="SVGID_28_">
					<use xlink:href="#SVGID_27_"  style="overflow:visible;"/>
				</clipPath>
				<rect x="612.66" y="-60" class="st17" width="22.73" height="28.72"/>
			</g>
		</g>
		<g>
			<defs>
				<path id="SVGID_29_" d="M648.57-39.11c0.84-5.79,3.5-10.65,7.95-14.49c0.69-0.6,1.76-0.54,2.38,0.12
					c0.62,0.67,0.56,1.69-0.13,2.29c-3.85,3.33-6.13,7.49-6.86,12.53c-0.13,0.89-0.98,1.5-1.9,1.38
					C649.08-37.41,648.44-38.22,648.57-39.11z"/>
			</defs>
			<clipPath id="SVGID_30_">
				<use xlink:href="#SVGID_29_"  style="overflow:visible;"/>
			</clipPath>
			<g class="st18">
				<defs>
					<rect id="SVGID_31_" x="-159.1" y="-499.13" width="2297.33" height="1292.25"/>
				</defs>
				<clipPath id="SVGID_32_">
					<use xlink:href="#SVGID_31_"  style="overflow:visible;"/>
				</clipPath>
				<rect x="642.57" y="-60" class="st19" width="22.73" height="28.72"/>
			</g>
		</g>
		<path class="st1" d="M631.85-58.23c-0.38,0-0.65-0.08-0.81-0.25c-0.16-0.16-0.25-0.43-0.25-0.81v-2.36c0-0.26,0.02-0.47,0.05-0.63
			c0.04-0.16,0.11-0.32,0.21-0.46c0.11-0.14,0.28-0.33,0.51-0.56c1.2-1.06,1.83-2.51,1.9-4.37h-2.46c-0.38,0-0.65-0.08-0.81-0.25
			c-0.16-0.16-0.25-0.43-0.25-0.81v-2.61c0-0.4,0.08-0.67,0.25-0.83c0.16-0.15,0.43-0.23,0.81-0.23h1.94
			c-0.35-1.76-0.53-2.99-0.53-3.7c0-2.18,0.79-3.92,2.38-5.21c1.58-1.29,3.71-1.94,6.39-1.94c0.96,0,1.92,0.11,2.89,0.33
			c0.96,0.22,1.83,0.55,2.61,0.97c0.47,0.26,0.77,0.49,0.92,0.7c0.14,0.21,0.21,0.53,0.21,0.95v2.64c0,0.59-0.24,0.88-0.7,0.88
			c-0.14,0-0.29-0.02-0.44-0.07c-0.15-0.05-0.33-0.11-0.55-0.18c-1.6-0.61-2.93-0.92-4.01-0.92c-2.14,0-3.2,1-3.2,2.99
			c0,0.66,0.08,1.5,0.25,2.54h5.35c0.4,0,0.67,0.08,0.83,0.23c0.15,0.15,0.23,0.43,0.23,0.83v2.61c0,0.38-0.08,0.65-0.23,0.81
			c-0.15,0.16-0.43,0.25-0.83,0.25h-4.79c-0.12,1.81-0.9,3.24-2.36,4.3h9.72c0.4,0,0.67,0.08,0.83,0.23
			c0.15,0.15,0.23,0.43,0.23,0.83v3.03c0,0.38-0.08,0.65-0.23,0.81c-0.15,0.16-0.43,0.25-0.83,0.25H631.85z"/>
	</g>
</g>
<g id="Yen" class="st2">
	<g class="st3">
		<g>
			<defs>
				<path id="SVGID_33_" d="M641.72-54.63l0.68,0c4.01-0.01,18.46-0.15,18.49,0.75c0.3,0.07,0.59,0.24,0.81,0.49
					c0.59,0.66,0.54,1.68-0.12,2.27c-3.66,3.3-5.83,7.42-6.52,12.42c-0.09,0.68-0.59,1.19-1.22,1.34c-0.09,0.06-0.18,0.12-0.28,0.16
					c-3.63,1.63-7.5,2.45-11.5,2.45c-4,0-7.87-0.82-11.5-2.45c-0.04-0.02-0.08-0.06-0.13-0.13c-0.71-0.09-1.29-0.64-1.39-1.37
					c-0.69-5-2.86-9.11-6.52-12.42c-0.66-0.59-0.71-1.61-0.12-2.27c0.49-0.55,1.27-0.68,1.9-0.37
					C625.18-54.8,637.91-54.64,641.72-54.63z"/>
			</defs>
			<clipPath id="SVGID_34_">
				<use xlink:href="#SVGID_33_"  style="overflow:visible;"/>
			</clipPath>
			<g class="st20">
				<defs>
					<rect id="SVGID_35_" x="-159.1" y="-499.13" width="2297.33" height="1292.25"/>
				</defs>
				<clipPath id="SVGID_36_">
					<use xlink:href="#SVGID_35_"  style="overflow:visible;"/>
				</clipPath>
				<rect x="616.01" y="-60.63" class="st21" width="52.09" height="31.86"/>
			</g>
		</g>
		<g>
			<defs>
				<ellipse id="SVGID_37_" cx="642.24" cy="-68.56" rx="26.65" ry="26.76"/>
			</defs>
			<clipPath id="SVGID_38_">
				<use xlink:href="#SVGID_37_"  style="overflow:visible;"/>
			</clipPath>
			<g class="st22">
				<defs>
					<rect id="SVGID_39_" x="-159.1" y="-499.13" width="2297.33" height="1292.25"/>
				</defs>
				<clipPath id="SVGID_40_">
					<use xlink:href="#SVGID_39_"  style="overflow:visible;"/>
				</clipPath>
				<rect x="609.61" y="-101.31" class="st23" width="65.27" height="65.49"/>
			</g>
		</g>
		<g>
			<defs>
				<path id="SVGID_41_" d="M639.36-43.26c-15.58,0-28.25-12.73-28.25-28.37c0-15.64,12.67-28.37,28.25-28.37
					s28.25,12.73,28.25,28.37C667.61-55.99,654.93-43.26,639.36-43.26z M639.36-96.79c-13.81,0-25.05,11.29-25.05,25.16
					s11.24,25.16,25.05,25.16c13.81,0,25.05-11.29,25.05-25.16S653.17-96.79,639.36-96.79z"/>
			</defs>
			<clipPath id="SVGID_42_">
				<use xlink:href="#SVGID_41_"  style="overflow:visible;"/>
			</clipPath>
			<g class="st24">
				<defs>
					<rect id="SVGID_43_" x="-159.1" y="-499.13" width="2297.33" height="1292.25"/>
				</defs>
				<clipPath id="SVGID_44_">
					<use xlink:href="#SVGID_43_"  style="overflow:visible;"/>
				</clipPath>
				<rect x="605.12" y="-105.98" class="st25" width="68.46" height="68.71"/>
			</g>
		</g>
		<g>
			<defs>
				<path id="SVGID_45_" d="M639.36-34.78c-4,0-7.87-0.82-11.5-2.45c-0.81-0.36-1.17-1.31-0.81-2.12c0.36-0.81,1.3-1.17,2.11-0.81
					c3.21,1.44,6.64,2.17,10.19,2.17c3.55,0,6.98-0.73,10.19-2.17c0.81-0.36,1.75,0,2.11,0.81c0.36,0.81,0,1.76-0.81,2.12
					C647.23-35.6,643.36-34.78,639.36-34.78"/>
			</defs>
			<clipPath id="SVGID_46_">
				<use xlink:href="#SVGID_45_"  style="overflow:visible;"/>
			</clipPath>
			<g class="st26">
				<defs>
					<rect id="SVGID_47_" x="-159.1" y="-499.13" width="2297.33" height="1292.25"/>
				</defs>
				<clipPath id="SVGID_48_">
					<use xlink:href="#SVGID_47_"  style="overflow:visible;"/>
				</clipPath>
				<rect x="620.93" y="-46.28" class="st27" width="36.86" height="17.49"/>
			</g>
		</g>
		<g>
			<defs>
				<path id="SVGID_49_" d="M639.36-27.39c-3.43,0-6.74-0.82-9.85-2.45c-0.69-0.36-1-1.31-0.69-2.12c0.31-0.81,1.12-1.18,1.81-0.81
					c2.75,1.44,5.69,2.17,8.73,2.17s5.98-0.73,8.73-2.17c0.69-0.36,1.5,0,1.81,0.81c0.31,0.81,0,1.76-0.69,2.12
					C646.1-28.21,642.78-27.39,639.36-27.39"/>
			</defs>
			<clipPath id="SVGID_50_">
				<use xlink:href="#SVGID_49_"  style="overflow:visible;"/>
			</clipPath>
			<g class="st28">
				<defs>
					<rect id="SVGID_51_" x="-159.1" y="-499.13" width="2297.33" height="1292.25"/>
				</defs>
				<clipPath id="SVGID_52_">
					<use xlink:href="#SVGID_51_"  style="overflow:visible;"/>
				</clipPath>
				<rect x="622.71" y="-38.89" class="st29" width="33.29" height="17.49"/>
			</g>
		</g>
		<g>
			<defs>
				<path id="SVGID_53_" d="M639.36-20c-2.38,0-4.75-0.3-7.06-0.9c-0.86-0.22-1.37-1.1-1.15-1.96c0.22-0.86,1.09-1.37,1.95-1.15
					c4.1,1.06,8.43,1.06,12.53,0c0.85-0.22,1.73,0.3,1.95,1.15c0.22,0.86-0.29,1.73-1.15,1.96C644.11-20.3,641.73-20,639.36-20"/>
			</defs>
			<clipPath id="SVGID_54_">
				<use xlink:href="#SVGID_53_"  style="overflow:visible;"/>
			</clipPath>
			<g class="st30">
				<defs>
					<rect id="SVGID_55_" x="-159.1" y="-499.13" width="2297.33" height="1292.25"/>
				</defs>
				<clipPath id="SVGID_56_">
					<use xlink:href="#SVGID_55_"  style="overflow:visible;"/>
				</clipPath>
				<rect x="625.11" y="-30.04" class="st31" width="28.49" height="16.03"/>
			</g>
		</g>
		<g>
			<defs>
				<path id="SVGID_57_" d="M629.39-39.11c-0.84-5.79-3.5-10.65-7.95-14.49c-0.69-0.6-1.76-0.54-2.38,0.12
					c-0.62,0.67-0.56,1.69,0.13,2.29c3.85,3.33,6.13,7.49,6.86,12.53c0.13,0.89,0.98,1.5,1.9,1.38
					C628.88-37.41,629.52-38.22,629.39-39.11z"/>
			</defs>
			<clipPath id="SVGID_58_">
				<use xlink:href="#SVGID_57_"  style="overflow:visible;"/>
			</clipPath>
			<g class="st32">
				<defs>
					<rect id="SVGID_59_" x="-159.1" y="-499.13" width="2297.33" height="1292.25"/>
				</defs>
				<clipPath id="SVGID_60_">
					<use xlink:href="#SVGID_59_"  style="overflow:visible;"/>
				</clipPath>
				<rect x="612.66" y="-60" class="st33" width="22.73" height="28.72"/>
			</g>
		</g>
		<g>
			<defs>
				<path id="SVGID_61_" d="M648.57-39.11c0.84-5.79,3.5-10.65,7.95-14.49c0.69-0.6,1.76-0.54,2.38,0.12
					c0.62,0.67,0.56,1.69-0.13,2.29c-3.85,3.33-6.13,7.49-6.86,12.53c-0.13,0.89-0.98,1.5-1.9,1.38
					C649.08-37.41,648.44-38.22,648.57-39.11z"/>
			</defs>
			<clipPath id="SVGID_62_">
				<use xlink:href="#SVGID_61_"  style="overflow:visible;"/>
			</clipPath>
			<g class="st34">
				<defs>
					<rect id="SVGID_63_" x="-159.1" y="-499.13" width="2297.33" height="1292.25"/>
				</defs>
				<clipPath id="SVGID_64_">
					<use xlink:href="#SVGID_63_"  style="overflow:visible;"/>
				</clipPath>
				<rect x="642.57" y="-60" class="st35" width="22.73" height="28.72"/>
			</g>
		</g>
		<path class="st1" d="M637.37-59.95c-0.32,0-0.56-0.07-0.7-0.21c-0.14-0.14-0.21-0.37-0.21-0.7v-3.03h-3.91
			c-0.28,0-0.48-0.06-0.61-0.18c-0.12-0.12-0.18-0.32-0.18-0.61v-1.58c0-0.28,0.06-0.48,0.18-0.61c0.12-0.12,0.32-0.18,0.61-0.18
			h3.91v-0.67l-0.61-1.27h-3.3c-0.28,0-0.48-0.06-0.61-0.18c-0.12-0.12-0.18-0.32-0.18-0.61v-1.58c0-0.28,0.06-0.48,0.18-0.61
			s0.32-0.18,0.61-0.18h1.79l-3.52-7.3c-0.2-0.42-0.3-0.72-0.3-0.88c0-0.42,0.26-0.64,0.79-0.64h4.09c0.36,0,0.64,0.07,0.82,0.2
			c0.18,0.13,0.33,0.36,0.45,0.68l2.67,8.12l2.7-8.12c0.1-0.32,0.25-0.55,0.44-0.68c0.19-0.13,0.47-0.2,0.83-0.2h3.94
			c0.53,0,0.79,0.21,0.79,0.64c0,0.16-0.1,0.45-0.3,0.88l-3.61,7.3h1.7c0.28,0,0.48,0.06,0.61,0.18s0.18,0.32,0.18,0.61v1.58
			c0,0.28-0.06,0.48-0.18,0.61c-0.12,0.12-0.32,0.18-0.61,0.18h-3.27l-0.64,1.36v0.58h3.91c0.28,0,0.48,0.06,0.61,0.18
			c0.12,0.12,0.18,0.32,0.18,0.61v1.58c0,0.28-0.06,0.48-0.18,0.61c-0.12,0.12-0.32,0.18-0.61,0.18h-3.91v3.03
			c0,0.32-0.07,0.56-0.2,0.7c-0.13,0.14-0.37,0.21-0.71,0.21H637.37z"/>
	</g>
</g>
<g id="Euro" class="st2">
	<g class="st3">
		<g>
			<defs>
				<path id="SVGID_65_" d="M641.72-54.63l0.68,0c4.01-0.01,18.46-0.15,18.49,0.75c0.3,0.07,0.59,0.24,0.81,0.49
					c0.59,0.66,0.54,1.68-0.12,2.27c-3.66,3.3-5.83,7.42-6.52,12.42c-0.09,0.68-0.59,1.19-1.22,1.34c-0.09,0.06-0.18,0.12-0.28,0.16
					c-3.63,1.63-7.5,2.45-11.5,2.45c-4,0-7.87-0.82-11.5-2.45c-0.04-0.02-0.08-0.06-0.13-0.13c-0.71-0.09-1.29-0.64-1.39-1.37
					c-0.69-5-2.86-9.11-6.52-12.42c-0.66-0.59-0.71-1.61-0.12-2.27c0.49-0.55,1.27-0.68,1.9-0.37
					C625.18-54.8,637.91-54.64,641.72-54.63z"/>
			</defs>
			<clipPath id="SVGID_66_">
				<use xlink:href="#SVGID_65_"  style="overflow:visible;"/>
			</clipPath>
			<g class="st36">
				<defs>
					<rect id="SVGID_67_" x="-159.1" y="-499.13" width="2297.33" height="1292.25"/>
				</defs>
				<clipPath id="SVGID_68_">
					<use xlink:href="#SVGID_67_"  style="overflow:visible;"/>
				</clipPath>
				<rect x="616.01" y="-60.63" class="st37" width="52.09" height="31.86"/>
			</g>
		</g>
		<g>
			<defs>
				<ellipse id="SVGID_69_" cx="642.24" cy="-68.56" rx="26.65" ry="26.76"/>
			</defs>
			<clipPath id="SVGID_70_">
				<use xlink:href="#SVGID_69_"  style="overflow:visible;"/>
			</clipPath>
			<g class="st38">
				<defs>
					<rect id="SVGID_71_" x="-159.1" y="-499.13" width="2297.33" height="1292.25"/>
				</defs>
				<clipPath id="SVGID_72_">
					<use xlink:href="#SVGID_71_"  style="overflow:visible;"/>
				</clipPath>
				<rect x="609.61" y="-101.31" class="st39" width="65.27" height="65.49"/>
			</g>
		</g>
		<g>
			<defs>
				<path id="SVGID_73_" d="M639.36-43.26c-15.58,0-28.25-12.73-28.25-28.37c0-15.64,12.67-28.37,28.25-28.37
					s28.25,12.73,28.25,28.37C667.61-55.99,654.93-43.26,639.36-43.26z M639.36-96.79c-13.81,0-25.05,11.29-25.05,25.16
					s11.24,25.16,25.05,25.16c13.81,0,25.05-11.29,25.05-25.16S653.17-96.79,639.36-96.79z"/>
			</defs>
			<clipPath id="SVGID_74_">
				<use xlink:href="#SVGID_73_"  style="overflow:visible;"/>
			</clipPath>
			<g class="st40">
				<defs>
					<rect id="SVGID_75_" x="-159.1" y="-499.13" width="2297.33" height="1292.25"/>
				</defs>
				<clipPath id="SVGID_76_">
					<use xlink:href="#SVGID_75_"  style="overflow:visible;"/>
				</clipPath>
				<rect x="605.12" y="-105.98" class="st41" width="68.46" height="68.71"/>
			</g>
		</g>
		<g>
			<defs>
				<path id="SVGID_77_" d="M639.36-34.78c-4,0-7.87-0.82-11.5-2.45c-0.81-0.36-1.17-1.31-0.81-2.12c0.36-0.81,1.3-1.17,2.11-0.81
					c3.21,1.44,6.64,2.17,10.19,2.17c3.55,0,6.98-0.73,10.19-2.17c0.81-0.36,1.75,0,2.11,0.81c0.36,0.81,0,1.76-0.81,2.12
					C647.23-35.6,643.36-34.78,639.36-34.78"/>
			</defs>
			<clipPath id="SVGID_78_">
				<use xlink:href="#SVGID_77_"  style="overflow:visible;"/>
			</clipPath>
			<g class="st42">
				<defs>
					<rect id="SVGID_79_" x="-159.1" y="-499.13" width="2297.33" height="1292.25"/>
				</defs>
				<clipPath id="SVGID_80_">
					<use xlink:href="#SVGID_79_"  style="overflow:visible;"/>
				</clipPath>
				<rect x="620.93" y="-46.28" class="st43" width="36.86" height="17.49"/>
			</g>
		</g>
		<g>
			<defs>
				<path id="SVGID_81_" d="M639.36-27.39c-3.43,0-6.74-0.82-9.85-2.45c-0.69-0.36-1-1.31-0.69-2.12c0.31-0.81,1.12-1.18,1.81-0.81
					c2.75,1.44,5.69,2.17,8.73,2.17s5.98-0.73,8.73-2.17c0.69-0.36,1.5,0,1.81,0.81c0.31,0.81,0,1.76-0.69,2.12
					C646.1-28.21,642.78-27.39,639.36-27.39"/>
			</defs>
			<clipPath id="SVGID_82_">
				<use xlink:href="#SVGID_81_"  style="overflow:visible;"/>
			</clipPath>
			<g class="st44">
				<defs>
					<rect id="SVGID_83_" x="-159.1" y="-499.13" width="2297.33" height="1292.25"/>
				</defs>
				<clipPath id="SVGID_84_">
					<use xlink:href="#SVGID_83_"  style="overflow:visible;"/>
				</clipPath>
				<rect x="622.71" y="-38.89" class="st45" width="33.29" height="17.49"/>
			</g>
		</g>
		<g>
			<defs>
				<path id="SVGID_85_" d="M639.36-20c-2.38,0-4.75-0.3-7.06-0.9c-0.86-0.22-1.37-1.1-1.15-1.96c0.22-0.86,1.09-1.37,1.95-1.15
					c4.1,1.06,8.43,1.06,12.53,0c0.85-0.22,1.73,0.3,1.95,1.15c0.22,0.86-0.29,1.73-1.15,1.96C644.11-20.3,641.73-20,639.36-20"/>
			</defs>
			<clipPath id="SVGID_86_">
				<use xlink:href="#SVGID_85_"  style="overflow:visible;"/>
			</clipPath>
			<g class="st46">
				<defs>
					<rect id="SVGID_87_" x="-159.1" y="-499.13" width="2297.33" height="1292.25"/>
				</defs>
				<clipPath id="SVGID_88_">
					<use xlink:href="#SVGID_87_"  style="overflow:visible;"/>
				</clipPath>
				<rect x="625.11" y="-30.04" class="st47" width="28.49" height="16.03"/>
			</g>
		</g>
		<g>
			<defs>
				<path id="SVGID_89_" d="M629.39-39.11c-0.84-5.79-3.5-10.65-7.95-14.49c-0.69-0.6-1.76-0.54-2.38,0.12
					c-0.62,0.67-0.56,1.69,0.13,2.29c3.85,3.33,6.13,7.49,6.86,12.53c0.13,0.89,0.98,1.5,1.9,1.38
					C628.88-37.41,629.52-38.22,629.39-39.11z"/>
			</defs>
			<clipPath id="SVGID_90_">
				<use xlink:href="#SVGID_89_"  style="overflow:visible;"/>
			</clipPath>
			<g class="st48">
				<defs>
					<rect id="SVGID_91_" x="-159.1" y="-499.13" width="2297.33" height="1292.25"/>
				</defs>
				<clipPath id="SVGID_92_">
					<use xlink:href="#SVGID_91_"  style="overflow:visible;"/>
				</clipPath>
				<rect x="612.66" y="-60" class="st49" width="22.73" height="28.72"/>
			</g>
		</g>
		<g>
			<defs>
				<path id="SVGID_93_" d="M648.57-39.11c0.84-5.79,3.5-10.65,7.95-14.49c0.69-0.6,1.76-0.54,2.38,0.12
					c0.62,0.67,0.56,1.69-0.13,2.29c-3.85,3.33-6.13,7.49-6.86,12.53c-0.13,0.89-0.98,1.5-1.9,1.38
					C649.08-37.41,648.44-38.22,648.57-39.11z"/>
			</defs>
			<clipPath id="SVGID_94_">
				<use xlink:href="#SVGID_93_"  style="overflow:visible;"/>
			</clipPath>
			<g class="st50">
				<defs>
					<rect id="SVGID_95_" x="-159.1" y="-499.13" width="2297.33" height="1292.25"/>
				</defs>
				<clipPath id="SVGID_96_">
					<use xlink:href="#SVGID_95_"  style="overflow:visible;"/>
				</clipPath>
				<rect x="642.57" y="-60" class="st51" width="22.73" height="28.72"/>
			</g>
		</g>
		<path class="st1" d="M641.36-58.7c-2.79,0-5.07-0.65-6.84-1.94c-1.77-1.29-2.97-3.21-3.6-5.74h-2.09c-0.33,0-0.56-0.07-0.7-0.21
			c-0.14-0.14-0.21-0.37-0.21-0.7v-1.82c0-0.33,0.07-0.56,0.21-0.7c0.14-0.14,0.37-0.21,0.7-0.21h1.61
			c-0.02-0.16-0.04-0.34-0.04-0.52c0-0.19,0-0.37,0-0.56c0-0.19,0-0.38,0-0.58c0-0.2,0.01-0.39,0.04-0.58h-1.61
			c-0.33,0-0.56-0.07-0.7-0.21c-0.14-0.14-0.21-0.37-0.21-0.7v-1.82c0-0.33,0.07-0.56,0.21-0.7c0.14-0.14,0.37-0.21,0.7-0.21h2.13
			c0.7-2.54,1.97-4.47,3.81-5.81c1.84-1.34,4.14-2.01,6.91-2.01c1.65,0,3.28,0.27,4.89,0.8c0.37,0.12,0.62,0.27,0.75,0.47
			c0.13,0.2,0.19,0.52,0.19,0.96v2.51c0,0.63-0.24,0.94-0.73,0.94c-0.09,0-0.37-0.05-0.84-0.14c-1.23-0.26-2.35-0.38-3.35-0.38
			c-1.3,0-2.37,0.22-3.19,0.66c-0.83,0.44-1.45,1.11-1.87,1.99h7.54c0.47,0,0.7,0.2,0.7,0.59c0,0.07-0.01,0.14-0.02,0.21
			c-0.01,0.07-0.03,0.15-0.05,0.24l-0.45,1.68c-0.09,0.37-0.21,0.62-0.35,0.73c-0.14,0.12-0.37,0.17-0.7,0.17h-7.33v2.23h6.67
			c0.47,0,0.7,0.2,0.7,0.59c0,0.07-0.01,0.14-0.02,0.21c-0.01,0.07-0.03,0.15-0.05,0.24l-0.45,1.68c-0.09,0.37-0.21,0.62-0.35,0.73
			c-0.14,0.12-0.37,0.17-0.7,0.17h-5.13c0.79,1.7,2.39,2.55,4.78,2.55c0.63,0,1.3-0.05,2.02-0.14c0.72-0.09,1.33-0.21,1.82-0.35
			c0.4-0.12,0.65-0.17,0.77-0.17c0.49,0,0.73,0.31,0.73,0.94v2.51c0,0.44-0.06,0.76-0.19,0.94c-0.13,0.19-0.38,0.35-0.75,0.49
			c-0.72,0.28-1.57,0.5-2.53,0.66C643.21-58.78,642.27-58.7,641.36-58.7z"/>
	</g>
</g>
<g id="Rupee" class="st2">
	<g class="st3">
		<g>
			<defs>
				<path id="SVGID_97_" d="M641.72-54.63l0.68,0c4.01-0.01,18.46-0.15,18.49,0.75c0.3,0.07,0.59,0.24,0.81,0.49
					c0.59,0.66,0.54,1.68-0.12,2.27c-3.66,3.3-5.83,7.42-6.52,12.42c-0.09,0.68-0.59,1.19-1.22,1.34c-0.09,0.06-0.18,0.12-0.28,0.16
					c-3.63,1.63-7.5,2.45-11.5,2.45c-4,0-7.87-0.82-11.5-2.45c-0.04-0.02-0.08-0.06-0.13-0.13c-0.71-0.09-1.29-0.64-1.39-1.37
					c-0.69-5-2.86-9.11-6.52-12.42c-0.66-0.59-0.71-1.61-0.12-2.27c0.49-0.55,1.27-0.68,1.9-0.37
					C625.18-54.8,637.91-54.64,641.72-54.63z"/>
			</defs>
			<clipPath id="SVGID_98_">
				<use xlink:href="#SVGID_97_"  style="overflow:visible;"/>
			</clipPath>
			<g class="st52">
				<defs>
					<rect id="SVGID_99_" x="-159.1" y="-499.13" width="2297.33" height="1292.25"/>
				</defs>
				<clipPath id="SVGID_100_">
					<use xlink:href="#SVGID_99_"  style="overflow:visible;"/>
				</clipPath>
				<rect x="616.01" y="-60.63" class="st53" width="52.09" height="31.86"/>
			</g>
		</g>
		<g>
			<defs>
				<ellipse id="SVGID_101_" cx="642.24" cy="-68.56" rx="26.65" ry="26.76"/>
			</defs>
			<clipPath id="SVGID_102_">
				<use xlink:href="#SVGID_101_"  style="overflow:visible;"/>
			</clipPath>
			<g class="st54">
				<defs>
					<rect id="SVGID_103_" x="-159.1" y="-499.13" width="2297.33" height="1292.25"/>
				</defs>
				<clipPath id="SVGID_104_">
					<use xlink:href="#SVGID_103_"  style="overflow:visible;"/>
				</clipPath>
				<rect x="609.61" y="-101.31" class="st55" width="65.27" height="65.49"/>
			</g>
		</g>
		<g>
			<defs>
				<path id="SVGID_105_" d="M639.36-43.26c-15.58,0-28.25-12.73-28.25-28.37c0-15.64,12.67-28.37,28.25-28.37
					s28.25,12.73,28.25,28.37C667.61-55.99,654.93-43.26,639.36-43.26z M639.36-96.79c-13.81,0-25.05,11.29-25.05,25.16
					s11.24,25.16,25.05,25.16c13.81,0,25.05-11.29,25.05-25.16S653.17-96.79,639.36-96.79z"/>
			</defs>
			<clipPath id="SVGID_106_">
				<use xlink:href="#SVGID_105_"  style="overflow:visible;"/>
			</clipPath>
			<g class="st56">
				<defs>
					<rect id="SVGID_107_" x="-159.1" y="-499.13" width="2297.33" height="1292.25"/>
				</defs>
				<clipPath id="SVGID_108_">
					<use xlink:href="#SVGID_107_"  style="overflow:visible;"/>
				</clipPath>
				<rect x="605.12" y="-105.98" class="st57" width="68.46" height="68.71"/>
			</g>
		</g>
		<g>
			<defs>
				<path id="SVGID_109_" d="M639.36-34.78c-4,0-7.87-0.82-11.5-2.45c-0.81-0.36-1.17-1.31-0.81-2.12c0.36-0.81,1.3-1.17,2.11-0.81
					c3.21,1.44,6.64,2.17,10.19,2.17c3.55,0,6.98-0.73,10.19-2.17c0.81-0.36,1.75,0,2.11,0.81c0.36,0.81,0,1.76-0.81,2.12
					C647.23-35.6,643.36-34.78,639.36-34.78"/>
			</defs>
			<clipPath id="SVGID_110_">
				<use xlink:href="#SVGID_109_"  style="overflow:visible;"/>
			</clipPath>
			<g class="st58">
				<defs>
					<rect id="SVGID_111_" x="-159.1" y="-499.13" width="2297.33" height="1292.25"/>
				</defs>
				<clipPath id="SVGID_112_">
					<use xlink:href="#SVGID_111_"  style="overflow:visible;"/>
				</clipPath>
				<rect x="620.93" y="-46.28" class="st59" width="36.86" height="17.49"/>
			</g>
		</g>
		<g>
			<defs>
				<path id="SVGID_113_" d="M639.36-27.39c-3.43,0-6.74-0.82-9.85-2.45c-0.69-0.36-1-1.31-0.69-2.12c0.31-0.81,1.12-1.18,1.81-0.81
					c2.75,1.44,5.69,2.17,8.73,2.17s5.98-0.73,8.73-2.17c0.69-0.36,1.5,0,1.81,0.81c0.31,0.81,0,1.76-0.69,2.12
					C646.1-28.21,642.78-27.39,639.36-27.39"/>
			</defs>
			<clipPath id="SVGID_114_">
				<use xlink:href="#SVGID_113_"  style="overflow:visible;"/>
			</clipPath>
			<g class="st60">
				<defs>
					<rect id="SVGID_115_" x="-159.1" y="-499.13" width="2297.33" height="1292.25"/>
				</defs>
				<clipPath id="SVGID_116_">
					<use xlink:href="#SVGID_115_"  style="overflow:visible;"/>
				</clipPath>
				<rect x="622.71" y="-38.89" class="st61" width="33.29" height="17.49"/>
			</g>
		</g>
		<g>
			<defs>
				<path id="SVGID_117_" d="M639.36-20c-2.38,0-4.75-0.3-7.06-0.9c-0.86-0.22-1.37-1.1-1.15-1.96c0.22-0.86,1.09-1.37,1.95-1.15
					c4.1,1.06,8.43,1.06,12.53,0c0.85-0.22,1.73,0.3,1.95,1.15c0.22,0.86-0.29,1.73-1.15,1.96C644.11-20.3,641.73-20,639.36-20"/>
			</defs>
			<clipPath id="SVGID_118_">
				<use xlink:href="#SVGID_117_"  style="overflow:visible;"/>
			</clipPath>
			<g class="st62">
				<defs>
					<rect id="SVGID_119_" x="-159.1" y="-499.13" width="2297.33" height="1292.25"/>
				</defs>
				<clipPath id="SVGID_120_">
					<use xlink:href="#SVGID_119_"  style="overflow:visible;"/>
				</clipPath>
				<rect x="625.11" y="-30.04" class="st63" width="28.49" height="16.03"/>
			</g>
		</g>
		<g>
			<defs>
				<path id="SVGID_121_" d="M629.39-39.11c-0.84-5.79-3.5-10.65-7.95-14.49c-0.69-0.6-1.76-0.54-2.38,0.12
					c-0.62,0.67-0.56,1.69,0.13,2.29c3.85,3.33,6.13,7.49,6.86,12.53c0.13,0.89,0.98,1.5,1.9,1.38
					C628.88-37.41,629.52-38.22,629.39-39.11z"/>
			</defs>
			<clipPath id="SVGID_122_">
				<use xlink:href="#SVGID_121_"  style="overflow:visible;"/>
			</clipPath>
			<g class="st64">
				<defs>
					<rect id="SVGID_123_" x="-159.1" y="-499.13" width="2297.33" height="1292.25"/>
				</defs>
				<clipPath id="SVGID_124_">
					<use xlink:href="#SVGID_123_"  style="overflow:visible;"/>
				</clipPath>
				<rect x="612.66" y="-60" class="st65" width="22.73" height="28.72"/>
			</g>
		</g>
		<g>
			<defs>
				<path id="SVGID_125_" d="M648.57-39.11c0.84-5.79,3.5-10.65,7.95-14.49c0.69-0.6,1.76-0.54,2.38,0.12
					c0.62,0.67,0.56,1.69-0.13,2.29c-3.85,3.33-6.13,7.49-6.86,12.53c-0.13,0.89-0.98,1.5-1.9,1.38
					C649.08-37.41,648.44-38.22,648.57-39.11z"/>
			</defs>
			<clipPath id="SVGID_126_">
				<use xlink:href="#SVGID_125_"  style="overflow:visible;"/>
			</clipPath>
			<g class="st66">
				<defs>
					<rect id="SVGID_127_" x="-159.1" y="-499.13" width="2297.33" height="1292.25"/>
				</defs>
				<clipPath id="SVGID_128_">
					<use xlink:href="#SVGID_127_"  style="overflow:visible;"/>
				</clipPath>
				<rect x="642.57" y="-60" class="st67" width="22.73" height="28.72"/>
			</g>
		</g>
		<path class="st1" d="M639.38-57.85c-0.3,0-0.55-0.05-0.76-0.16c-0.21-0.1-0.46-0.33-0.76-0.68l-6.1-6.89
			c-0.35-0.39-0.56-0.69-0.64-0.88c-0.08-0.2-0.12-0.51-0.12-0.95v-1.84c0-0.32,0.07-0.55,0.21-0.69c0.14-0.14,0.37-0.21,0.69-0.21
			h3.32c1.27,0,2.22-0.15,2.86-0.45c0.63-0.3,1.06-0.81,1.26-1.52h-7.41c-0.32,0-0.55-0.07-0.69-0.21
			c-0.14-0.14-0.21-0.37-0.21-0.69v-1.87c0-0.32,0.07-0.55,0.21-0.69c0.14-0.14,0.37-0.21,0.69-0.21h7.38
			c-0.23-0.69-0.66-1.2-1.28-1.51c-0.62-0.31-1.51-0.47-2.67-0.47h-3.46c-0.32,0-0.55-0.07-0.69-0.21
			c-0.14-0.14-0.21-0.37-0.21-0.69v-2.29c0-0.32,0.07-0.55,0.21-0.69c0.14-0.14,0.37-0.21,0.69-0.21h16.48
			c0.46,0,0.69,0.19,0.69,0.55c0,0.21-0.02,0.43-0.07,0.66l-0.35,1.84c-0.07,0.39-0.2,0.66-0.38,0.81
			c-0.18,0.15-0.47,0.22-0.87,0.22h-4.16c0.72,0.53,1.22,1.19,1.52,1.97h2.42c0.46,0,0.69,0.19,0.69,0.55
			c0,0.21-0.02,0.43-0.07,0.66l-0.28,1.42c-0.07,0.39-0.2,0.66-0.38,0.81c-0.19,0.15-0.47,0.22-0.87,0.22h-1.28
			c-0.28,1.64-1,2.95-2.18,3.93c-1.18,0.98-2.74,1.55-4.68,1.71l6.58,6.55c0.32,0.32,0.55,0.58,0.68,0.78
			c0.13,0.2,0.19,0.38,0.19,0.54c0,0.51-0.38,0.76-1.14,0.76H639.38z"/>
	</g>
</g>
</svg>
