<?xml version="1.0" encoding="utf-8"?>
<!-- Generator: Adobe Illustrator 24.1.0, SVG Export Plug-In . SVG Version: 6.00 Build 0)  -->
<svg version="1.1" id="Layer_1" xmlns="http://www.w3.org/2000/svg" xmlns:xlink="http://www.w3.org/1999/xlink" x="0px" y="0px"
	 viewBox="0 0 80 80" style="enable-background:new 0 0 80 80;" xml:space="preserve">
<style type="text/css">
	.st0{fill:#FFFFFF;}
	.st1{fill:#232F3E;}
	.st2{fill:#B2E5F6;}
</style>
<g>
	<g>
		<g>
			<path class="st0" d="M74.6,28.9l-2-7.5c-4.3,0.7-8.6-1.8-10.1-5.9l-52.4,14c0.3,1.8,0,3.6-0.7,5.2h21.5c0.7-3.4,3.2-6.3,6.7-7.2
				c5-1.3,10.1,1.6,11.4,6.6c0,0.2,0.1,0.4,0.1,0.6h18.1C68.9,32.1,71.5,29.9,74.6,28.9z M58.7,34.2c-1.4,0.4-2.8-0.5-3.2-1.8
				s0.5-2.8,1.8-3.2s2.8,0.5,3.2,1.8S60.1,33.8,58.7,34.2z"/>
			<path class="st1" d="M79.9,40.8l-7.5-28c-0.3-1.1-1.4-1.7-2.4-1.4L1.6,29.8c-1.1,0.3-1.7,1.4-1.4,2.5l0.7,2.5h1L1.1,32
				c-0.1-0.5,0.2-1.1,0.7-1.2l68.4-18.3c0.5-0.1,1.1,0.2,1.2,0.7l7.5,28c0.1,0.5-0.2,1.1-0.7,1.2l-1.5,0.4v1l1.7-0.5
				C79.5,43,80.2,41.9,79.9,40.8z"/>
			<path class="st1" d="M10.1,29.6l52.4-14c1.6,4.1,5.8,6.5,10.1,5.8l2,7.5c-3.1,1.1-5.7,3.2-7.3,5.9h7.4c1.1,0,2,0.9,2,2v6l1.5-0.4
				c0.5-0.1,0.8-0.7,0.7-1.2l-7.5-28c-0.1-0.5-0.7-0.9-1.2-0.7L1.8,30.7c-0.5,0.1-0.9,0.7-0.7,1.2l0.7,2.8h7.5
				C10.1,33.1,10.4,31.4,10.1,29.6z"/>
			<path class="st1" d="M49,34.1c-1.3-5-6.5-7.9-11.4-6.6c-3.5,1-6.1,3.8-6.7,7.2h18.3C49.1,34.5,49.1,34.3,49,34.1z"/>
			<path class="st1" d="M57.4,29.2c-1.4,0.4-2.2,1.8-1.8,3.2s1.8,2.2,3.2,1.8s2.2-1.8,1.8-3.2C60.2,29.6,58.8,28.8,57.4,29.2z"/>
		</g>
		<path class="st2" d="M74.8,56.8c-6.9,0.5-12.5,6-13,13H12.2c-0.5-4.4-3.9-7.8-8.3-8.3V49c4.3-0.5,7.8-3.9,8.3-8.3h54.2
			c0.5,4.3,3.9,7.8,8.3,8.3L74.8,56.8L74.8,56.8z"/>
		<g>
			<path class="st1" d="M72.8,36.7H2c-1.1,0-2,0.9-2,2v29c0,1.1,0.9,2,2,2h70.8c1.1,0,2-0.9,2-2v-29C74.8,37.6,73.8,36.7,72.8,36.7z
				 M72.8,54.8c-6.9,0.5-12.5,6-13,13H10.2c-0.5-4.4-3.9-7.8-8.3-8.3V47c4.3-0.5,7.8-3.9,8.3-8.3h54.2c0.5,4.3,3.9,7.8,8.3,8.3
				L72.8,54.8L72.8,54.8z"/>
			<circle class="st1" cx="37.3" cy="53.2" r="9.3"/>
			<circle class="st1" cx="56" cy="53.2" r="2.6"/>
			<path class="st1" d="M18.7,50.6c-1.4,0-2.6,1.2-2.6,2.6s1.2,2.6,2.6,2.6s2.6-1.2,2.6-2.6S20.1,50.6,18.7,50.6z"/>
		</g>
	</g>
</g>
<path class="st0" d="M37,59.4c-0.2,0-0.2,0-0.4-0.1c-0.2-0.1-0.2-0.2-0.4-0.3l-3-3.4c-0.2-0.2-0.2-0.3-0.3-0.4
	c-0.1-0.2-0.1-0.3-0.1-0.5v-0.9c0-0.2,0-0.2,0.1-0.3s0.2-0.1,0.3-0.1H35c0.5,0,0.9-0.1,1.4-0.2c0.3-0.2,0.5-0.4,0.6-0.8h-3.7
	c-0.2,0-0.2,0-0.3-0.1S33,52.1,33,52.1v-0.9c0-0.1,0-0.2,0.1-0.3s0.2-0.1,0.3-0.1H37c-0.1-0.3-0.3-0.6-0.6-0.7
	c-0.4-0.2-0.9-0.2-1.3-0.2h-1.7c-0.2,0-0.2,0-0.3-0.1c-0.1-0.1-0.2-0.2-0.1-0.3v-1.1c0-0.2,0.1-0.4,0.3-0.5c0.1,0,0.1,0,0.2,0h8.1
	c0.2,0,0.3,0.1,0.3,0.3c0,0.1,0,0.2,0,0.3l-0.2,0.7c0,0.2-0.1,0.3-0.2,0.4c-0.2,0.1-0.2,0.2-0.4,0.1h-2.1c0.4,0.2,0.6,0.5,0.8,0.9
	h1.2c0.2,0,0.3,0.1,0.3,0.2c0,0.1,0,0.2,0,0.3L41,51.8c0,0.2-0.1,0.3-0.2,0.4c-0.2,0.1-0.2,0.2-0.4,0.1h-0.6c-0.1,0.8-0.5,1.4-1.1,2
	c-0.6,0.5-1.5,0.8-2.3,0.9l3.2,3.2c0.2,0.1,0.2,0.2,0.3,0.4c0.1,0.1,0.1,0.2,0.1,0.2c0,0.2-0.2,0.4-0.5,0.4H37z"/>
</svg>
