<?xml version="1.0" encoding="utf-8"?>
<!-- Generator: Adobe Illustrator 24.0.3, SVG Export Plug-In . SVG Version: 6.00 Build 0)  -->
<svg version="1.1" id="Rupee" xmlns="http://www.w3.org/2000/svg" xmlns:xlink="http://www.w3.org/1999/xlink" x="0px" y="0px"
	 viewBox="0 0 80 80" style="enable-background:new 0 0 80 80;" xml:space="preserve">
<style type="text/css">
	.st0{fill:#B2E5F6;}
	.st1{fill:#232F3E;}
</style>
<title>ZZZZ</title>
<path class="st0" d="M69.37,11.47c-1.97-3-4.84-5.32-8.19-6.61c-0.71-0.27-1.44-0.5-2.18-0.68C66.97,8,70.33,17.56,66.51,25.53
	c-3.82,7.97-13.38,11.33-21.35,7.51c-3.72-1.78-6.6-4.93-8.05-8.78h-24c-0.48,0.01-0.87,0.4-0.88,0.88v44.23
	c0,0.49,0.39,0.88,0.88,0.88h34.61c0.48,0.01,0.87-0.38,0.88-0.86c0-0.01,0-0.01,0-0.02V37.21c8.93,3.48,18.99-0.94,22.47-9.86
	C73.11,22.09,72.48,16.17,69.37,11.47z"/>
<path class="st1" d="M69.37,11.47c-3.98-9.5-14.92-13.98-24.42-10s-13.98,14.92-10,24.42s14.92,13.98,24.42,10
	c6.94-2.91,11.45-9.7,11.45-17.22C70.82,16.2,70.32,13.75,69.37,11.47z M52.15,34.71c-8.84-0.03-15.98-7.21-15.95-16.05
	c0.03-8.84,7.21-15.98,16.05-15.95c8.82,0.03,15.95,7.18,15.95,16c0,8.84-7.16,16-16,16C52.18,34.71,52.17,34.71,52.15,34.71z"/>
<path class="st0" d="M68.2,18.67c0.15,8.84-6.9,16.12-15.73,16.27c-6.89,0.12-13.07-4.19-15.36-10.69h0.72
	c-0.2-1.09-0.31-2.19-0.31-3.3c0.03-9.56,7.8-17.29,17.36-17.27c1.4-0.01,2.8,0.16,4.16,0.5C64.64,6.83,68.21,12.47,68.2,18.67z"/>
<path class="st1" d="M45.45,38.7c-0.72,0-1.3,0.58-1.31,1.3v25.33H10.37V22h20c0.72,0,1.31-0.59,1.31-1.31
	c0-0.72-0.59-1.31-1.31-1.31h-20v-2c0-1.7,1.37-3.07,3.07-3.07h17.74c0.72,0,1.31-0.59,1.31-1.31c0-0.72-0.59-1.31-1.31-1.31
	c0,0,0,0,0,0H13.44c-3.14-0.01-5.68,2.53-5.69,5.67c0,0,0,0.01,0,0.01V74.3c0,3.14,2.55,5.69,5.69,5.7h27.63
	c3.14-0.01,5.69-2.56,5.68-5.7c0,0,0,0,0,0V40C46.74,39.28,46.17,38.71,45.45,38.7z M41.08,77.37H13.44c-1.7,0-3.07-1.37-3.07-3.07
	V68h33.77v6.3c0.01,1.69-1.36,3.06-3.05,3.07c-0.01,0-0.01,0-0.02,0H41.08z"/>
<circle class="st1" cx="27.25" cy="72.41" r="2.63"/>
<path class="st1" d="M37.21,45.33C34.26,46.89,31,47.8,27.67,48c-4.47,0.18-8.9-0.9-12.79-3.1c-0.32-0.18-0.54,0.17-0.27,0.42
	c3.51,3.18,8.14,4.84,12.87,4.61c3.72-0.18,7.29-1.56,10.17-3.93c0.19-0.12,0.24-0.37,0.11-0.56S37.4,45.21,37.21,45.33L37.21,45.33
	z"/>
<path class="st1" d="M39.9,43.48c-0.33-0.4-3-0.62-4.51,0.67c-0.23,0.2-0.18,0.46,0.09,0.4c0.88-0.16,2.89-0.52,3.28,0
	s-0.28,2.56-0.59,3.49c-0.09,0.28,0.13,0.39,0.37,0.17C40,46.75,40.22,43.88,39.9,43.48z"/>
<path class="st1" d="M52.57,27.05c-0.17,0.01-0.33-0.03-0.48-0.1c-0.18-0.11-0.34-0.25-0.47-0.42l-3.81-4.31
	c-0.16-0.16-0.3-0.35-0.4-0.55c-0.06-0.19-0.09-0.39-0.08-0.59v-1.15c-0.02-0.16,0.03-0.31,0.13-0.43c0.12-0.1,0.28-0.15,0.43-0.13
	H50c0.61,0.03,1.22-0.07,1.79-0.29c0.39-0.18,0.68-0.53,0.79-0.95h-4.66c-0.16,0.02-0.32-0.03-0.44-0.13
	c-0.1-0.12-0.14-0.28-0.13-0.43V16.4c-0.01-0.15,0.03-0.31,0.13-0.43c0.12-0.1,0.28-0.15,0.44-0.13h4.61
	c-0.12-0.41-0.41-0.75-0.8-0.94c-0.53-0.23-1.1-0.33-1.67-0.3h-2.17c-0.15,0.02-0.31-0.03-0.43-0.13c-0.1-0.12-0.15-0.27-0.13-0.43
	v-1.43c-0.05-0.26,0.12-0.51,0.38-0.56c0.06-0.01,0.12-0.01,0.18,0H58.2c0.29,0,0.43,0.12,0.43,0.35c0.01,0.14,0.01,0.27,0,0.41
	L58.37,14c-0.01,0.19-0.1,0.38-0.24,0.51c-0.16,0.11-0.35,0.16-0.54,0.14H55c0.45,0.31,0.79,0.74,1,1.24h1.51
	c0.29,0,0.43,0.11,0.43,0.34c0.01,0.14,0.01,0.28,0,0.42l-0.17,0.88c-0.02,0.19-0.1,0.37-0.24,0.51c-0.16,0.11-0.35,0.16-0.54,0.14
	h-0.8c-0.13,0.96-0.62,1.84-1.37,2.46c-0.84,0.65-1.86,1.03-2.92,1.07l4.12,4.09c0.15,0.15,0.3,0.31,0.42,0.49
	c0.07,0.1,0.11,0.21,0.12,0.33c0,0.32-0.24,0.48-0.72,0.48L52.57,27.05z"/>
</svg>
